<?xml version="1.0" encoding="UTF-8"?>
<svg id="Layer_1" data-name="Layer 1" xmlns="http://www.w3.org/2000/svg" version="1.1" viewBox="0 0 85 85">
  <defs>
    <style>
      .cls-1 {
        fill: #000;
        stroke-width: 0px;
      }
    </style>
  </defs>
  <path class="cls-1" d="M74.8,26.8l-13.6,41.5H15.6l-2.5-6.2h41.9l14.3-38.2,3.8-12.3H28L10.1,60.9c-.2.3-1.9,3.8,0,7.4,1.9,3.7,5.8,4.3,6.2,4.3,15.4-.2,30.8-.4,46.2-.6,2.3-5.5,4.3-13.2,6.5-19.5,3.2-9.4,5.8-16.6,7.7-24.8-.7-.3-1.3-.6-1.9-.9ZM33.3,20.7h28l-2.2,5.8h-27.7l1.9-5.8ZM29.9,31.1h28l-2.2,5.9h-27.7l1.9-5.9Z"/>
</svg>