<?xml version="1.0" encoding="UTF-8"?>
<svg id="Layer_1" data-name="Layer 1" xmlns="http://www.w3.org/2000/svg" version="1.1" viewBox="0 0 85 85">
  <defs>
    <style>
      .cls-1 {
        fill: #000;
        stroke-width: 0px;
      }
    </style>
  </defs>
  <path class="cls-1" d="M77.1,45.5c-.8-1.5-2-2.5-3.6-3.1-.4-.2-.6-.4-.6-.8,0-2.2-.4-4.5-.9-6.6-.7-2.8-1.9-5.5-3.4-8.1-1.3-2.2-2.9-4.2-4.7-6-1.8-1.8-3.7-3.3-5.9-4.6-2.8-1.7-5.7-2.9-8.8-3.6-3.9-.9-7.8-1-11.7-.4-4.4.7-8.4,2.3-12,4.7-3.1,2.1-5.7,4.6-7.9,7.6s-3.8,6.4-4.8,10c-.6,2.3-1,4.7-1,7.1s-.1.6-.5.7c-2.7,1.1-4.2,3.1-4.8,6,0,0-.1.2-.1.3v17c.3,1.4.8,2.8,1.8,4,1.3,1.6,3,2.6,5.1,2.7,2,0,4,0,6,0s.2,0,.3,0v-.2c.6.3,1.3.3,2,0,1.2-.4,1.8-1.3,1.8-2.8v-24.6c-.2-1.6-1.7-2.7-3.3-2.2-.1,0-.2,0-.4,0,.1-1.7.2-3.5.6-5.2,1-4.2,3-7.8,6-10.9,2.9-2.9,6.4-4.9,10.4-6,4.2-1.1,8.4-1,12.4.3,3.9,1.2,7.3,3.4,10.1,6.6,2.3,2.6,4,5.6,5,9,.6,2,.8,4,.9,6-.7,0-1.4.4-1.8.9-.5.6-.6,1.4-.6,2.2v24.5c.1,1.2,1.1,2.2,2.4,2.3h.7c2.2,0,4.3,0,6.4,0,2.3-.2,4.1-1.6,5.2-3.7.5-.9.7-1.8,1.1-2.8v-17.1c-.7-1.1-.9-2.2-1.4-3.2Z"/>
</svg>