<?xml version="1.0" encoding="UTF-8"?>
<svg id="Layer_1" data-name="Layer 1" xmlns="http://www.w3.org/2000/svg" version="1.1" viewBox="0 0 85 85">
  <defs>
    <style>
      .cls-1 {
        fill: #000;
        stroke-width: 0px;
      }
    </style>
  </defs>
  <g>
    <path class="cls-1" d="M73.8,51h-2.7c-.1,0-.2,0-.2,0-.3-.5-.5-1.1-.7-1.6-.6-1.4-1-2.9-1.4-4.5-.3-1.3-.6-2.6-.6-3.9s0-1.1.2-1.6c.3-.7.8-1.1,1.5-1.4.7-.2,1.4-.3,2.1-.3h4c.6,0,1.3,0,1.9.3,1,.4,1.5,1.1,1.6,2.2.1,1-.1,2-.3,3-.3,1.8-.8,3.5-1.4,5.2-.3.8-.7,1.7-1,2.5-.1.2-.2.3-.4.3-.9,0-1.8,0-2.6,0,0,.1,0,0,0,0Z"/>
    <path class="cls-1" d="M73.8,52.3h2.3c.2,0,.3,0,.3.3-.2,2-.3,4.1-.5,6.1-.1,1.9-.3,3.9-.4,5.8-.1,1.6-.2,3.1-.3,4.7,0,.4-.1.8-.4,1.1-.4.4-.9.5-1.4.3s-.8-.6-.9-1.2c-.2-2.5-.4-5-.5-7.4-.2-2.2-.3-4.4-.5-6.6-.1-.9-.1-1.8-.2-2.7q0-.3.3-.3c.7-.1,1.4-.1,2.2-.1Z"/>
  </g>
  <g>
    <path class="cls-1" d="M62.1,30.9h-1.2c0-.5-.1-.9-.1-1.3-.1-.9-.6-1.5-1.4-1.5s-1.3.6-1.3,1.6v1.2h-2.2c-.4,0-.5,0-.6-.5-.2-1.2-.4-2.5-.7-3.7-1-3.6-2.9-6.7-5.5-9.3-2.6-2.5-5.6-4.2-9.1-5.1-1.2-.3-2.4-.5-3.7-.7h-3.3c-.1,0-.2,0-.3,0-2.5.3-4.9.9-7.2,2.1-4.4,2.2-7.6,5.5-9.7,9.9-1,2.2-1.6,4.5-1.8,6.9,0,0-.2.4-.3.4h-2.4v-1.3c0-.9-.5-1.4-1.3-1.5-.8,0-1.4.6-1.5,1.4,0,.4-.1.9-.1,1.3-.5,0-.9,0-1.3,0s-.9.2-1.1.5c-.7.8-.3,2,.8,2.2.5,0,1.1,0,1.5,0,1.8,13.6,9.4,21.8,22.7,24.7v11.4h-10.9c-1,0-1.6.9-1.2,1.8.2.4.6.6.9,1h29.1c.6-.4,1.1-.8.9-1.6-.2-.8-.7-1.1-1.6-1.1h-9.9v-11.4c13.4-2.9,21-11.1,22.7-24.8h1.2c.9,0,1.4-.6,1.4-1.4,0-.9-.6-1.4-1.5-1.4ZM34.6,14.3c10.1,0,17.9,8.2,17.9,17.9s-8,17.9-17.9,18c-9.9,0-18-8-18-17.9.1-9.8,7.9-18,18-18ZM36.3,55.6c-14.6,1-24.6-10.7-25.1-22h2.5c.1,0,.2.3.3.4.3,1.6.5,3.2,1,4.7,1.3,4,3.7,7.3,7,9.8,2.5,2,5.4,3.3,8.5,3.9,5.6,1.1,10.9,0,15.7-3.2,3.6-2.4,6.2-5.8,7.8-9.8.7-1.7,1.1-3.5,1.2-5.3,0-.5.2-.6.7-.6h2.1c-.4,10.9-9.2,21.3-21.7,22.1Z"/>
    <path class="cls-1" d="M21.1,34.9c-1.3,0-2-1.1-1.5-2,.1-.2.3-.4.5-.6,4.8-4.8,9.7-9.7,14.5-14.5.7-.7,1.4-.8,2-.4s.8,1.2.4,1.9c-.1.2-.3.4-.5.5-4.8,4.8-9.6,9.6-14.5,14.4-.2.4-.7.6-.9.7Z"/>
    <path class="cls-1" d="M33.2,32.6c-.6,0-1-.4-1.3-.9-.2-.5-.2-1,.1-1.4.1,0,.2-.3.3-.4,3.2-3.2,6.3-6.4,9.5-9.5.6-.6,1.4-.7,2-.3.6.4.7,1.2.3,1.8-.1.2-.3.4-.4.5-3.1,3.1-6.2,6.2-9.4,9.4-.3.3-.8.5-1.1.8Z"/>
    <path class="cls-1" d="M30.6,35.2c-.1.2-.3.6-.5.9-1.8,1.8-3.6,3.6-5.3,5.4-.7.7-1.5.7-2.1,0s-.5-1.4.1-2.1c1.8-1.8,3.6-3.6,5.4-5.4.5-.5,1-.6,1.6-.4.5.3.7.7.8,1.5Z"/>
  </g>
</svg>