<?xml version="1.0" encoding="UTF-8"?>
<svg id="Layer_1" data-name="Layer 1" xmlns="http://www.w3.org/2000/svg" version="1.1" viewBox="0 0 85 85">
  <defs>
    <style>
      .cls-1 {
        fill: #000;
        stroke-width: 0px;
      }
    </style>
  </defs>
  <path class="cls-1" d="M68.9,11.7c-1.5,1.5-3,2.9-4.4,4.4-.2.2-.5.3-.8.2-2.1-.4-4.2-.2-6,1-.3.2-.5,0-.7-.2-1.4-1.4-2.9-2.9-4.3-4.3-.7-.7-2-.7-2.7,0-2.9,3.1-5.8,6.1-8.6,9.2-3.4,3.6-6.7,7.3-10.1,10.9-.4.5-.8.9-1.2,1.4.8.8,1.9.7,2.7,0,1.1-1,2.2-2.1,3.3-3.1,2.6-2.4,5.1-4.8,7.7-7.2,1.9-1.8,3.8-3.6,5.8-5.4.6-.6,1.3-1.2,1.8-1.7,1,1,1.9,1.9,3,2.9,0,0-.3,0-.4.2-2.1,1.8-4.2,3.7-6.2,5.5-3.2,2.9-6.4,5.8-9.5,8.8-3,3-5.9,6.1-8.8,9.3-2.9,3.1-5.5,6.5-8,10-1.7,2.5-3.4,5-5.1,7.5-.5,1-3,5.3-3.4,6.2-.4,1-.7,2-1.1,3v2.1h1.6c2-.4,7-3.1,9.3-4.3,0,0,.2,0,.3,0,2.3-1.5,4.6-3,6.9-4.6,2.2-1.6,4.4-3.3,6.6-5,2.3-1.9,4.5-4,6.7-6.1,3.6-3.4,7.2-6.9,10.6-10.6,1.9-2.1,3.8-4.1,5.7-6.1,2.5-2.6,5-5.2,6.8-8.4,1.2-2,2-4.1,1.9-6.5,0-.2,0-.5.3-.7.8-.8,1.6-1.7,2.4-2.5.7-.7,1.4-1.3,2.1-2h0c-1.5-1.2-2.9-2.5-4.2-3.9Z"/>
</svg>