<?xml version="1.0" encoding="UTF-8"?>
<svg id="Layer_1" data-name="Layer 1" xmlns="http://www.w3.org/2000/svg" version="1.1" viewBox="0 0 85 85">
  <defs>
    <style>
      .cls-1 {
        fill: #000;
        stroke-width: 0px;
      }
    </style>
  </defs>
  <path class="cls-1" d="M52.1,30.7c1.8-.3,2-2.5,2-2.5,0,0,.2-3.2,0-6.7-.2-3.6-3.4-3.6-3.4-3.6h-5.5v-6.1h-5.4v6.1h-5.5s-3.2,0-3.4,3.6,0,6.7,0,6.7c0,0,.2,2.2,2,2.5-.7-.1-2.1,0-2.1,1.9v35.3s1.7,5.3,11.6,4.4c9.9.8,11.6-4.4,11.6-4.4v-35.3c.2-1.9-1.3-2-1.9-1.9Z"/>
</svg>