<?xml version="1.0" encoding="UTF-8"?>
<svg id="Layer_1" data-name="Layer 1" xmlns="http://www.w3.org/2000/svg" version="1.1" viewBox="0 0 85 85">
  <defs>
    <style>
      .cls-1 {
        fill: #000;
        stroke-width: 0px;
      }
    </style>
  </defs>
  <path class="cls-1" d="M40.6,12.2h3.7c.2,0,.3.1.5.1,2.1.2,4.1.5,6.1,1.1,2.7.8,5.3,2,7.7,3.5,2.5,1.6,4.7,3.4,6.6,5.6,2.2,2.5,4,5.3,5.3,8.5.8,2,1.5,4.1,1.8,6.3.2,1.1.3,2.3.5,3.4v3.7c0,.2-.1.3-.1.5-.2,2.1-.5,4.2-1.1,6.2-1.1,3.6-2.7,6.9-5,9.9-2.4,3.1-5.2,5.6-8.5,7.6-3.4,2-7,3.3-10.8,3.9-1,.1-1.9.3-2.9.4h-3.7c-.1,0-.3-.1-.4-.1-3.1-.2-6.2-.9-9.1-2.1-5.3-2.2-9.7-5.6-13.1-10.2-2.9-4-4.8-8.4-5.5-13.3-.1-1-.3-1.9-.4-2.9v-3.7c0-.2.1-.3.1-.5.3-4,1.4-7.8,3.2-11.4,2.2-4.3,5.2-7.8,9-10.6,4-2.9,8.4-4.8,13.2-5.5.9-.2,1.9-.3,2.9-.4ZM46.4,60.8c3.3-.1,6.5-.4,9.7-1,.2,0,.4-.2.5-.4.4-.7.8-1.5,1.2-2.2,1.5-2.8,3-5.6,4.5-8.4.7-1.4.8-1.4,0-2.7-1.4-2.4-2.9-4.8-4.4-7.2-.2-.3-.4-.4-.7-.4-4.2.4-8.5.9-12.7,1.3-.2,0-.4.2-.5.3-1.6,2.9-3.1,5.9-4.7,8.8-.3.5-.1.8.2,1.1,1.9,3.3,3.8,6.5,5.7,9.8.2.8.6,1.2,1.2,1ZM48.8,18.5h0c-2.5,0-5,.4-7.5.6-.3,0-.4.2-.5.5-1.1,3.4-2.3,6.9-3.4,10.3-.1.2,0,.4.1.6.6.7,1.3,1.4,1.9,2.1,1.3,1.4,2.7,2.9,3.9,4.4.7.9,1.4,1.1,2.5,1,3.7-.5,7.5-.8,11.3-1.2.2,0,.4-.2.5-.4.9-2.4,1.8-4.8,2.8-7.3.1-.3,0-.4-.1-.6-2.9-3.2-5.7-6.4-8.6-9.6-.1-.2-.4-.3-.7-.3-.7,0-1.4,0-2.2,0ZM39.9,67.2c.1-.1.3-.2.4-.4,1.2-1.6,2.3-3.2,3.5-4.8.1-.1.1-.4,0-.5-.2-.5-.5-1-.8-1.4-1.7-3-3.5-6-5.2-8.9-.1-.2-.4-.3-.6-.4-.8-.2-1.6-.2-2.3-.4-2.6-.5-5.2-1.1-7.9-1.7-.3-.1-.4,0-.6.2-1.6,2.6-3.2,5.1-4.9,7.7-.1.2-.2.4,0,.7,1.4,2.5,2.9,4.9,4.7,7.2.1.2.4.3.6.3,3.2.6,6.4,1.2,9.6,1.7,1.1.3,2.3.5,3.5.7ZM18.5,30.2c.1.1.2.2.3.3,2.1,1.2,4.1,2.5,6.2,3.7.1.1.4,0,.6,0,3-1.9,6.2-3.5,9.5-4.9.4-.2.6-.4.8-.8,1-3.1,2.1-6.2,3.1-9.4.1-.3,0-.4-.2-.6-1.7-1.2-3.5-2.1-5.3-2.8h-.4c-1,.4-2,.8-3,1.2-2.9,1.4-5.4,3.2-7.7,5.5-.4.4-.8.7-1,1.2-.9,2-1.8,3.9-2.6,5.9-.2.3-.2.5-.3.7ZM17.4,31.8c-.7,1.1-1.4,2.1-2,3.2-.2.4-.5.8-.6,1.2-.2,1.3-.5,2.6-.6,3.9-.3,3.9.1,7.7,1.4,11.4.1.3.3.6.5.9.6.6,1.2,1.1,1.8,1.6.7.5,1.4,1,2.1,1.5.2-.2.3-.4.4-.5,1.6-2.5,3.1-4.9,4.7-7.4.2-.3.2-.6.2-.9-.7-3.4-1-6.8-1-10.2s-.1-.5-.4-.6c-1.2-.7-2.4-1.4-3.6-2.1-1-.8-1.9-1.4-2.9-2ZM70.7,44.7c-.3.2-.6.5-.9.6-1.5.9-3,1.7-4.5,2.5-.2.1-.5.3-.7.5-.5.9-1,1.7-1.4,2.6-1.7,3.1-3.4,6.3-5,9.4-.1.2-.1.5-.1.8.2,1.1.5,2.2.7,3.3.1.3.1.5.2.9,7-5.1,10.9-11.9,11.7-20.6ZM53.3,16.2c-.4.9,0,1.5.5,2.2,2.5,2.8,5,5.6,7.4,8.3.5.5.9.9,1.6,1.2,1.2.5,2.4,1.1,3.5,1.7.6.3,1.2.7,1.8,1.1-3.1-6.8-8-11.6-14.8-14.5ZM43.3,70.7c-.9-.4-1.7-.8-2.6-1.1-.4-.2-.8-.4-1.2-.5-2.9-.6-5.9-1.1-8.8-1.6-.6-.1-1.2-.2-1.9-.3h0c4.5,2.6,9.3,3.8,14.5,3.5Z"/>
</svg>