<?xml version="1.0" encoding="UTF-8"?>
<svg id="Layer_1" data-name="Layer 1" xmlns="http://www.w3.org/2000/svg" version="1.1" viewBox="0 0 85 85">
  <defs>
    <style>
      .cls-1 {
        fill: #000;
        stroke-width: 0px;
      }
    </style>
  </defs>
  <path class="cls-1" d="M23.9,73.1c-2.9-3.3-5.9-6.5-7-10.9-.4-1.6-1.4-2.7-3.1-3.2-1.9-.7-3.4-2-4.6-3.7-.9-1.3-.6-2.2,1-2.4,3.9-.6,7.7-1,11.6-1.6,1.6-.2,2.4-1,2.4-2.6s0-1.5-.1-2.3c-1.8-14.5,12.7-25.9,26.3-20.6,2.3.9,3.7.4,4.6-2,1.2-3.1,2.1-6.2,3.2-9.3.4-1.1.6-2.6,1.9-2.6s1.7,1.1,2.2,2c1.1,1.8,2.3,3.7,3,5.7,1.3,3.5,3.5,5.9,6.8,7.7,1.3.7,2.5,1.7,3.5,2.7s.8,1.8-.7,2.2c-2.1.5-4.3.9-6.5,1.4-1.8.4-3.6.7-5.3,1.2-2.1.7-2.5,1.4-2,3.5,1.4,7.4-.7,13.7-6.3,18.6-5.7,5-12.3,6.2-19.5,3.7-.6-.2-1.2-.4-1.8-.5-1.5-.3-2.5.2-3.1,1.6-1.3,3.1-2.6,6.2-4,9.3-.3.8-1,1.4-1.5,2.1-.3,0-.7,0-1,0ZM36,36.5c.1,1.7.2,3,.4,4.3.8,6.5,3.5,12.2,7.9,17.1.3.3,1,.6,1.3.5,1.5-.5,2.9-1.1,4.3-1.7.3-.1.6-.7.5-1-1.4-9-3.6-17.9-7.1-26.3-.2-.6-.3-1.5-1.4-1.3-1.7.3-3.6.2-5,1.6-.2.2-.2.6-.2.9-.2,2-.5,4.1-.7,5.9ZM46.1,28.4c4.4,7.7,7.6,15.7,8,24.6,3.7-3.3,5.1-10.2,3.2-15.4-1.9-4.9-6.8-9-11.2-9.2ZM32.1,32.7c-4.5,3.2-6.3,11.1-4,16.9,2,4.9,7.7,9.3,11.5,8.8-7.3-7.1-9.7-15.7-7.5-25.7ZM56.3,28.1c0,1.5,2.2,4.4,3.3,4.7.4.1.9.1,1.3,0,2.2-.8,4.4-1.6,6.6-2.4.9-.3.9-.8.3-1.5-1-1.2-2-2.4-2.8-3.7-1-1.6-1.7-3.3-2.6-4.9-.3-.5-.9-.9-1.4-1.3-.4.5-1,.9-1.3,1.5-1.1,2-2,4.1-3,6.2-.1.6-.3,1.2-.4,1.4ZM15.7,55.9c-.1.2-.1.3-.2.5,3.6,1.6,4.8,5.2,6.8,8.1.1.2.2.4.4.6.9,1.3,1.6,1.3,2.3-.2,1-2.1,1.8-4.3,2.8-6.5.7-1.7-.6-2.6-1.4-3.7-.6-.8-1.5-.7-2.4-.5-1.7.4-3.4.7-5.1,1.1-1.1.2-2.2.4-3.2.6Z"/>
</svg>