<?xml version="1.0" encoding="UTF-8"?>
<svg id="Layer_1" data-name="Layer 1" xmlns="http://www.w3.org/2000/svg" version="1.1" viewBox="0 0 85 85">
  <defs>
    <style>
      .cls-1 {
        fill: #000;
        stroke-width: 0px;
      }
    </style>
  </defs>
  <path class="cls-1" d="M79,45.7v-1.5c0-12.4-10.1-22.5-22.5-22.5h-31.3c-10.7,0-19.4,8.7-19.4,19.4v6.2h0c.5,9,7.9,16,17,16s16.4-7.1,17-16h5.4c.5,9,7.9,16,17,16s16.4-7.1,17-16h0v-1c-.1-.2-.1-.3-.1-.5ZM31.1,46.2h-5.6v5.6h-7.3v-5.6h-5.6v-7.3h5.6v-5.6h7.3v5.6h5.6v7.3ZM57.9,44.4c-1,1.6-3.2,2.2-4.9,1.2-1.6-1-2.2-3.2-1.2-4.9,1-1.6,3.2-2.2,4.9-1.2,1.7,1,2.2,3.1,1.2,4.9ZM66.3,51.4c-1,1.6-3.2,2.2-4.9,1.2-1.6-1-2.2-3.2-1.2-4.9,1-1.6,3.2-2.2,4.9-1.2,1.7,1,2.2,3.2,1.2,4.9ZM66.3,37.4c-1,1.6-3.2,2.2-4.9,1.2-1.6-1-2.2-3.2-1.2-4.9,1-1.6,3.2-2.2,4.9-1.2,1.7,1,2.2,3.1,1.2,4.9ZM74.7,44.4c-1,1.6-3.2,2.2-4.9,1.2-1.6-1-2.2-3.2-1.2-4.9,1-1.6,3.2-2.2,4.9-1.2,1.7,1,2.2,3.1,1.2,4.9Z"/>
</svg>