<?xml version="1.0" encoding="UTF-8"?>
<svg id="Layer_1" data-name="Layer 1" xmlns="http://www.w3.org/2000/svg" version="1.1" viewBox="0 0 85 85">
  <defs>
    <style>
      .cls-1 {
        fill: #000;
        stroke-width: 0px;
      }
    </style>
  </defs>
  <path class="cls-1" d="M32.4,42.1v27.5c0,1.5-.8,2.5-2.1,2.9-.3.1-.6.1-.9.1h-12.1c-1.8,0-2.9-1.1-2.9-2.9V14.7c0-1.9,1.1-3.1,3-3.1,4.2,0,8.3,0,12.5.1,1.5,0,2.5,1.2,2.5,2.8v27.6h0ZM29.8,22.6h-3.8c-.5,0-.9-.2-1.1-.6-.5-.9,0-2,1.1-2h3.3c.3,0,.5-.1.5-.5v-.4q0-.7-.7-.7h-7.3c-.6,0-1-.2-1.3-.7-.4-.9.2-1.9,1.2-1.9h7.5c.2,0,.5,0,.5-.1,0-.4,0-.8,0-1.2s-.4-.2-.6-.2h-10.6q-1.4,0-1.4,1.4v53.6c0,.5.2.7.7.7h11.7c0,0,.2-.1.2-.2v-1.3h-8c-.9,0-1.5-.5-1.5-1.3s.5-1.3,1.5-1.3h7.4c.5,0,.6-.2.6-.6v-1.1h-3.7c-.8,0-1.3-.6-1.3-1.4s.5-1.3,1.3-1.3h2.6q1.2,0,1.1-1.2t0-.2h-3.6c-.9,0-1.4-.5-1.4-1.3s.5-1.3,1.4-1.3h3.7v-.8c0-.5,0-.6-.6-.6h-3c-1,0-1.4-.4-1.4-1.4s.5-1.2,1.4-1.2h2.7c1,0,.9.2.9-.9s0-.7-.7-.7h-7.4c-.9,0-1.4-.5-1.4-1.4s.6-1.3,1.4-1.3h6.8c1.4,0,1.1.3,1.2-1.2,0-.4,0-.5-.5-.5h-3.4c-.8,0-1.2-.5-1.3-1.3,0-.8.5-1.3,1.3-1.3h3.8v-1.5h-3.7c-.9,0-1.4-.5-1.4-1.3s.5-1.3,1.4-1.3h2.5q1.3,0,1.2-1.3s0-.1,0-.1h-3.5c-.9,0-1.4-.5-1.4-1.3s.5-1.3,1.4-1.3h3.6v-1.6h-8c-.7,0-1.2-.3-1.4-.8-.3-1,.3-1.8,1.3-1.8h8v-1.1c0-.4,0-.5-.5-.5h-3.3c-.8,0-1.3-.6-1.3-1.4s.5-1.3,1.3-1.3h2.6q1.3,0,1.1-1.3h0c-.2-.1-.4-.1-.6-.1h-3c-.8,0-1.3-.5-1.3-1.2s.4-1.3,1.2-1.4h3.8c.4-.8.4-1.2.4-1.7Z"/>
  <path class="cls-1" d="M38.4,43.9v-24.2c0-.4.2-.9.4-1.2,1.3-2,2.6-3.9,3.9-5.9.6-.9,1.7-1,2.3-.1,1.4,2,2.9,4,4.3,6,.2.3.3.8.3,1.3v12.8c0,11.6,0,23.1,0,34.7,0,.5,0,1.1,0,1.6-.4,1.7-1.4,2.7-3,3.2-1.7.5-3.4.5-5.1,0-1.9-.6-2.8-2-3-3.9,0-1.8,0-3.5,0-5.3,0-6.3,0-12.6,0-19h0ZM45.3,22.8v35.1q0,1.1,1.1,1.1c.5,0,.7-.1.7-.7V22.7c-.6.1-1.2.1-1.8.1ZM41.1,22.8v34.9q0,1.4,1.4,1.3s0,0,0-.1V22.8c-.5,0-.9,0-1.5,0ZM47.1,65.3h-5.7c0,0-.3.3-.3.4v2.3c0,.8.4,1.4,1.1,1.6,1.3.4,2.5.5,3.8,0,.6-.2,1-.7,1-1.3.1-.9.1-1.9.1-3ZM45.3,17.4c-.5.2-.9.5-1.3.6-.4,0-.9-.2-1.4-.3-.5.7-1,1.6-1.6,2.4h6.2c-.7-1-1.4-1.9-1.9-2.7ZM41.1,62.6h5.9q0-1-.8-1h-5.2c0,.4,0,.7,0,1Z"/>
  <path class="cls-1" d="M67.1,64v2.4c0,1.2-.4,1.7-1.6,1.8-.5,0-.6.2-.6.6,0,1.5-.4,2.8-1.9,3.4-2.5,1.2-5.1-.3-5.4-3.2,0-.3,0-.5,0-.8,0,0-.3-.1-.4-.1-1-.2-1.4-.6-1.4-1.7V20c0-.8.2-1.3.7-1.9,1.1-1.3,2.1-2.6,3.1-3.9.2-.2.3-.5.3-.7,0-.8.6-1.3,1.2-1.3.7-.1,1.2.4,1.4,1.1,0,.2.2.5.3.7,1.2,1.4,2.4,2.8,3.6,4.1.4.5.6,1,.6,1.7v40.8c0,.6.3.8.8.6,0,0,.2-.3.2-.5v-13.4c0-.9.5-1.4,1.3-1.4s1.3.5,1.3,1.4v18.6c0,.7-.4,1.1-1.1,1.2s-1.3-.2-1.5-.8c0-.2,0-.4,0-.6v-1.2q0-.7-.7-.7c.3,0,.2,0,0,.2ZM58.5,22.8v37.9c0,.5,0,.7.6.6h4.7c.5,0,.7-.1.7-.7V22.8c-2.1,0-4,0-6,0ZM64.5,20.1c-1.1-1.3-2.1-2.5-3.2-3.7-1,1.2-2,2.4-3,3.7h6.2ZM64.5,65.5v-.9c0-.5,0-.7-.6-.7h-4.3c-1.2,0-1-.3-1.1,1.1,0,.3,0,.5.4.4h1.8c1.3.1,2.5.1,3.8.1ZM62.4,68.2h-2.1c0,.6,0,1.3.5,1.6.3.2,1.1.2,1.2,0,.3-.4.3-1,.4-1.6Z"/>
</svg>