<?xml version="1.0" encoding="UTF-8"?>
<svg id="Layer_1" data-name="Layer 1" xmlns="http://www.w3.org/2000/svg" version="1.1" viewBox="0 0 85 85">
  <defs>
    <style>
      .cls-1 {
        fill: #000;
        stroke-width: 0px;
      }
    </style>
  </defs>
  <path class="cls-1" d="M81.7,48.9c0,.9-.1,1.9-.1,2.8s-.1.6-.4.7c-2.3,1.3-4.7,2.6-7,3.9-.3.2-.6.3-.8.6-.9.7-1.8.9-2.9,1-7.1.8-14.3,1-21.4.7-6.9-.3-13.8-1.1-20.5-3.1-3-.9-5.9-2-8.6-3.5-.2-.1-.4-.4-.4-.6,0-3.3,0-6.6,0-10s.4-7.5,1.8-11c1.3-3.5,3.5-6.5,6.5-8.8,3.5-2.7,7.5-4.2,11.8-5,1.5-.3,3.1-.5,4.6-.8.2,0,.4-.2.4-.4.2-1.3,1.1-2.1,2.2-2.6,2.1-.9,4.2-.9,6.2.1,1.2.6,1.7,1.3,2,2.5,1.6.2,3.2.4,4.8.8,5.1,1,9.9,2.8,13.9,6.3,4.5,3.8,6.9,8.7,7.7,14.4.2,1.1.3,2.3.4,3.4-.1,2.9-.1,5.8-.1,8.6Z"/>
  <path class="cls-1" d="M3.2,64.6c0-.2.2-.4.2-.6.4-1.3,1.2-2.2,2.2-3,3.6-2.8,7.6-4.7,11.6-6.8.8-.4,1.4-.4,2.2,0,4.9,2.6,10.2,4,15.6,5,5.8,1.1,11.6,1.5,17.5,1.6,5.3.1,10.6-.2,15.8-.6.2,0,.3,0,.5.1-.7.5-1.4,1-2.1,1.4-3,1.6-5.9,3.3-9,4.7-4.6,2.2-9.5,3.5-14.5,4.5-3.9.7-7.8,1.5-11.8,1.8-4.4.3-8.7,0-13-.8-4.9-.9-9.7-2.5-14.3-4.4-.2-.1-.4-.3-.4-.5-.2-.4-.4-.9-.5-1.3,0-.4,0-.8,0-1.1Z"/>
</svg>