<?xml version="1.0" encoding="UTF-8"?>
<svg id="Layer_1" data-name="Layer 1" xmlns="http://www.w3.org/2000/svg" version="1.1" viewBox="0 0 85 85">
  <defs>
    <style>
      .cls-1 {
        fill: #000;
        stroke-width: 0px;
      }
    </style>
  </defs>
  <path class="cls-1" d="M22.6,36c.2.2.6.3.9.2.3-.1.6-.3.8-.6.1-.1.7-1.2,2.7-1,2.6.2,4.3,1.4,4.3,1.4.2.1.4.2.6.2.3,0,.5-.1.7-.3l6.4-5.9c.4-.3.4-.8.2-1.3l-2.7-5.4c2.8-4.8,8.4-5.1,10.2-5.1h1.7c.4,0,.8-.3,1-.7.2-.4,0-.9-.3-1.2-2.8-2.6-6.3-3.9-10.4-3.9-8.2,0-16.6,5.4-18.4,9.1-2,4.3-4.6,6.9-4.6,6.9-.2.2-.3.5-.3.8s.1.6.4.8l6.8,6Z"/>
  <path class="cls-1" d="M17.2,43c.2.2.4.3.7.3h.1c.3,0,.6-.2.7-.4l3.8-4.6c.4-.4.3-1.1-.1-1.5l-7-6.2c-.2-.2-.5-.3-.8-.3s-.6.1-.7.4l-4,4.6c-.2.2-.3.5-.3.8s.2.6.4.7l7.2,6.2Z"/>
  <path class="cls-1" d="M75.1,62.6c-.1-.1-.1-.2-.2-.3l-18.4-17.7-7.5-7.3,15.4-14.2.8.8c.2.2.5.3.8.3h0c.3,0,.6-.2.8-.4l5.7-6.7c.2-.2.3-.5.2-.8,0-.3-.2-.6-.4-.7l-2.1-1.7c-.4-.3-1-.3-1.3,0l-6.7,5.3c-.2.2-.4.5-.4.8s.1.6.3.8l.8.8-15.4,14.2-5.7-5.5c-.4-.4-1-.4-1.5,0l-7.4,6.4c-.2.2-.4.5-.4.8s.1.6.3.8l5.6,5.9-.7.7-2.7-2.7c-.4-.4-1-.4-1.5-.1l-23.4,20.1c-.1.1-.2.2-.3.4-.8,1.8.3,4.7,2.8,7.1,1.9,1.9,4.1,3,5.8,3s1.1-.1,1.6-.4c.1,0,.2-.1.2-.2l21.6-21.6c.4-.4.4-1.1,0-1.5l-2.7-2.7.7-.6,24.7,26.4c.1.1.2.1.2.2.4.3,1,.4,1.6.4,1.7,0,4-1.2,5.8-3,2.7-2.5,3.8-5.3,3-7.1ZM13.4,64.4c-.2,0-.3-.1-.4-.2-.2-.2-.2-.6.1-.8l19.7-17.1c.2-.2.6-.2.8.1.2.2.2.6-.1.8l-19.7,17.1c-.2.1-.3.1-.4.1ZM16.2,67.3c-.1,0-.3-.1-.4-.2-.2-.2-.2-.6,0-.8l18.6-18.1c.2-.2.5-.2.8,0,.2.2.2.6,0,.8l-18.6,18.1c-.1.1-.3.2-.4.2ZM37.8,50.6l-18.4,18.5c-.1.1-.2.2-.4.2s-.3-.1-.4-.2c-.2-.2-.2-.5,0-.8l18.4-18.5c.2-.2.5-.2.8,0,.2.3.2.6,0,.8Z"/>
</svg>