<?xml version="1.0" encoding="UTF-8"?>
<svg id="Layer_1" data-name="Layer 1" xmlns="http://www.w3.org/2000/svg" version="1.1" viewBox="0 0 85 85">
  <defs>
    <style>
      .cls-1 {
        fill: #000;
        stroke-width: 0px;
      }
    </style>
  </defs>
  <path class="cls-1" d="M72.5,40.3c0-.2,0-.4-.1-.6-.2-.9-.8-1.4-1.7-1.7-.2-.1-.3-.2-.3-.4v-10.5c.1-1.4,0-2.8-.3-4.2-.5-1.9-1.4-3.6-2.8-5s-3-2.5-4.9-3.1c-1.3-.4-2.6-.6-3.9-.6h-4.2c-.3,0-.5-.1-.4-.4v-1.3c0-.2-.1-.4-.3-.4h-22c-.3,0-.4.1-.4.4v1.2c0,.3-.1.4-.4.4h-4.5c-1,0-1.9.1-2.8.3-1.7.4-3.2,1.2-4.5,2.3-2.8,2.4-4.3,5.5-4.3,9.2v11.5c0,.2,0,.3-.3.4-1.3.4-1.8,1.3-1.8,2.6s.1,2.8,0,4.3c-.1,1.4,1.2,2.6,2.5,2.5h2.3c.3,0,.4.1.4.4v20.1c0,.6.1,1.1.2,1.7.4,1.5,1.5,2.5,2.9,3.1.6.3,1.4.4,2.1.4h39.2c.7,0,1.4-.1,2.1-.4,2-1,3-2.5,3-4.7.1-5.1-.2-10.1.1-15.2,0-.6-.2-1.3,0-1.9.1-.3-.1-.6-.1-.9v-2.2c0-.3.1-.4.4-.4h2.4c1.4,0,2.4-1,2.4-2.4,0-1.4,0-3,0-4.5ZM33.3,14.6c0-.2.1-.3.3-.3h17.7q.5,0,.5.5v1.1c0,.3-.1.4-.4.4h-17.9c-.2,0-.3-.1-.3-.3.1-.5.1-1,.1-1.4ZM17.4,45.2h-2.3c-.3,0-.4-.1-.4-.4v-4.3c0-.3.1-.4.4-.4h2.3c.3,0,.3.1.3.3v4.4c.1.3,0,.4-.3.4ZM64.7,49.3H20.9q-1,0-1-1v-7.7q0-.5.5-.5h12.3q.5,0,.5.5v1.7c0,1.2.9,1.9,2,2h2.8c.3,0,.4.1.4.4,0,.7,0,1.4.3,2.1.6,1.1,1.5,1.6,2.7,1.6h2.6c1.6,0,2.8-1.6,2.7-3h0q0-1,1-1h1.9c1.3,0,2.3-.9,2.2-2.2v-1.5c0-.4.1-.5.5-.5h12.5c.3,0,.4.1.4.4v8.4c0,.3-.2.3-.5.3ZM38.2,39h8.4c.7,0,1.2.5,1.2,1.2s-.4.8-.8.9h-8.2c-.4,0-.8,0-1.1-.4-.6-.7-.3-1.5.5-1.7ZM65.2,37.6c0,.3-.1.4-.4.4h-12.6c-.2,0-.3-.1-.4-.3-.2-1.1-.9-1.8-2-1.8h-14.5c-1.1,0-2,.7-2.1,1.8,0,.3-.2.3-.4.3h-12.4q-.5,0-.5-.5v-2c0-1.1.4-1.5,1.5-1.5h40.7c.2,0,.4-.1.6-.1.7.2,1.5-.2,2.1.4s.3.6.4.9v2.4ZM22,30c0-.6.5-1.2,1.2-1.2h38.4c.7,0,1.2.2,1.4.8,0,.1.1.3.1.4v1.4c0,.3-.1.4-.4.4H22.5q-.6,0-.6-.6c0-.4,0-.8,0-1.2ZM65.7,32.2c-.2-.1-.4-.3-.4-.6v-1.5c0-1.5-.7-2.6-2.1-3.3-.4-.2-1-.3-1.5-.3H23.4c-1.7,0-3.1,1.1-3.5,2.7-.1.2-.1.5-.1.7v1.8c0,.1-.1.3-.3.4-.8.4-1.3,1.1-1.6,2-.1.3-.1.6-.1.9v2.6c0,.3-.1.4-.4.4s-.5,0-.5-.4v-9.9c0-1.1,0-2.1.1-3.2.1-1.6.8-3,1.7-4.3,1.4-1.8,3.2-3.1,5.4-3.6.8-.2,1.6-.3,2.3-.3h4.3c.2,0,.3,0,.3.1v2h22.4c.4,0,.5-.1.5-.5v-1.3c0-.2.1-.3.3-.3h4.9c.9,0,1.8.2,2.6.5,2,.7,3.6,1.9,4.8,3.6,1.1,1.6,1.7,3.3,1.7,5.3v11.7c0,.2,0,.4-.1.4-.2.1-.5,0-.7,0,0,0-.1-.2-.1-.3v-2.5c0-1.2-.6-2.1-1.6-2.8ZM70.3,42.6v2.2c0,.3-.1.4-.4.4h-2.3c-.2,0-.3-.1-.3-.3v-4.5c0-.2.1-.3.3-.3h2.3c.3,0,.4.1.4.4v2.1Z"/>
</svg>