<?xml version="1.0" encoding="UTF-8"?>
<svg id="Layer_1" data-name="Layer 1" xmlns="http://www.w3.org/2000/svg" version="1.1" viewBox="0 0 85 85">
  <defs>
    <style>
      .cls-1 {
        fill: #000;
        stroke-width: 0px;
      }
    </style>
  </defs>
  <path class="cls-1" d="M4.2,42.7c.6-.6,1.2-1.3,1.9-1.9,4.8-4,9.6-8,14.4-12,3.7-3.1,7.4-6.1,11.1-9.2,2.4-2,4.9-4.1,7.3-6.1,2-1.7,5.4-1.7,7.4,0,3.7,3.1,7.4,6.2,11.1,9.3.1.1.2.1.3.2,0-.3.1-.5.1-.7v-8c0-1.5.5-2,2-2h8.3c1.4,0,1.9.5,1.9,1.9v18.3c0,.5.2.8.5,1.1,3.1,2.6,6.3,5.2,9.4,7.8.4.3.7.8,1,1.2v.9c-1,1.2-2,2.5-3,3.7-.9,1.1-1.6,1.1-2.7.3-2.9-2.4-5.7-4.8-8.5-7.1-2.5-2.1-5-4.2-7.5-6.3-2.6-2.2-5.2-4.3-7.8-6.5-2.8-2.3-5.6-4.6-8.3-7-.3-.3-.6-.3-.9,0-2.5,2.1-5.1,4.3-7.6,6.4s-5.1,4.2-7.6,6.3c-2.6,2.1-5.1,4.3-7.7,6.4-2.8,2.4-5.7,4.7-8.5,7.1-.3.3-.6.6-1,.8-.8.6-1.5.5-2.2-.2-1.1-1.3-2.2-2.6-3.3-3.9,0-.2,0-.5,0-.8Z"/>
  <path class="cls-1" d="M48.6,73.2v-18.2h-11.5c-.6,0-.7.2-.7.7v17.6h-17.8c-2.2,0-3.4-1.2-3.4-3.4v-22c0-.5.2-.9.6-1.2,4.5-3.7,8.9-7.4,13.4-11,3.5-2.9,6.9-5.7,10.4-8.5,1-.8,2-1.6,3-2.5.9.7,1.8,1.5,2.7,2.2,2.1,1.8,4.3,3.5,6.4,5.3,2.8,2.3,5.6,4.6,8.3,6.9,2.4,2,4.7,3.9,7.1,5.9.8.7,1.7,1.3,2.5,2.1.2.2.3.6.3.9v21.9c0,2.2-1.2,3.4-3.4,3.4h-17.1c-.3,0-.5,0-.8,0Z"/>
</svg>