<?xml version="1.0" encoding="UTF-8"?>
<svg id="Layer_1" data-name="Layer 1" xmlns="http://www.w3.org/2000/svg" version="1.1" viewBox="0 0 85 85">
  <defs>
    <style>
      .cls-1 {
        fill: #000;
        stroke-width: 0px;
      }
    </style>
  </defs>
  <path class="cls-1" d="M69.2,11.7H20.1v8.2h-6c-1.1,0-2.2.8-2.2,1.9v4.1c0,1.1,1.1,2.2,2.2,2.2h6v4.1h-6c-1.1,0-2.2.8-2.2,1.9v4.1c0,1.1,1.1,2.2,2.2,2.2h6v4.1h-6c-1.1,0-2.2.8-2.2,1.9v4.1c0,1.1,1.1,2.2,2.2,2.2h6v4.1h-6c-1.1,0-2.2.8-2.2,1.9v4.1c0,1.1,1.1,2.2,2.2,2.2h6v8.2h49.1c2.3,0,3.9-1.9,3.9-4.2V16.1c0-2.6-1.7-4.3-3.9-4.3ZM32.3,68.8h-8.2v-4.1h2.2c1.1,0,1.9-1,1.9-2.2v-4.1c0-1.1-.8-1.9-1.9-1.9h-2.2v-4.1h2.2c1.1,0,1.9-1,1.9-2.2v-3.9c0-1.1-.8-1.9-1.9-1.9h-2.2v-4.1h2.2c1.1,0,1.9-1,1.9-2.2v-4.1c0-1.1-.8-1.9-1.9-1.9h-2.2v-4.1h2.2c1.1,0,1.9-1,1.9-2.2v-4.1c0-1.1-.8-1.9-1.9-1.9h-2.2v-4.1h8.2v53.1h0Z"/>
</svg>