<?xml version="1.0" encoding="UTF-8"?>
<svg id="Layer_1" data-name="Layer 1" xmlns="http://www.w3.org/2000/svg" version="1.1" viewBox="0 0 85 85">
  <defs>
    <style>
      .cls-1 {
        fill: #000;
        stroke-width: 0px;
      }
    </style>
  </defs>
  <path class="cls-1" d="M55.9,11.7c1.3.4,1.7,1.3,1.7,2.6,0,5.6,0,11.1,0,16.7v.8h1.2c1,0,1.8.4,2.3,1.3,1.3,2.2,2.5,4.5,3.7,6.8.5.8.4,1.7,0,2.5-1.2,2-2.4,4.1-3.5,6.1-.4.8-1.1,1.2-1.9,1.2h-4.6c.2-.2.3-.4.4-.5.9-1,1.6-2.1,2.1-3.3.2-.4.4-.7.7-1,1-.9,1.3-2.3.9-3.6-.5-1.3-1.7-2.2-3.2-2.2s-2.5.8-3,2c.6,0,1.2-.1,1.8-.1s1.1.2,1.5.4c.9.4,1.2,1.4,1.1,2.3-.3,1.5-1.1,2.7-2.1,3.9-4,4.5-8.9,7.8-14.7,9.6-.8.3-1.8.4-2.6.4-1.9.1-2.6-.6-3-2.4-1,.8-1,2.3,0,3.3.8,1,2.4,1.1,3.4.3.2-.2.4-.3.6-.4,1-.2,2-.5,3.1-.7.3,2.9.6,5.9,1,8.9,0,0-.2.1-.2.1-.7-.7-1.4-1.4-2.1-2.1-.2.2-.3.3-.5.5l-7.5,7.5c-.7.7-.9.7-1.6,0l-10.5-10.5c-.7-.7-.7-.9,0-1.6,2.7-2.7,5.3-5.3,8-8-.7-.7-1.4-1.4-2.1-2.1,0-.1,0-.1,0-.2.8.1,1.6.2,2.5.3,2.5.3,4.9.7,7.4,1,.2,0,.4-.1.5-.2,2.7-3.3,6.1-5.8,9.8-7.8h0c-.2-.5-.5-.9-.7-1.3-.4-.8-.4-1.6,0-2.3,1.2-2.3,2.5-4.5,3.7-6.8.5-.9,1.2-1.3,2.3-1.3h1.2v-3.1c0-.1-.2-.3-.3-.4-.6-.7-1.3-1.3-1.9-2-.7-.7-.7-1.3,0-2,.6-.6,1.3-1.3,1.9-1.9.5-.5.5-.9,0-1.4-.6-.6-1.2-1.2-1.9-1.9-.7-.8-.7-1.4,0-2.1.3-.3.6-.6.9-.9.7-.7,1.3-1.3,1.2-2.4,0-1,.7-1.6,1.6-1.9.5,0,.9,0,1.3,0ZM49.8,49.1c-.9-1.6-1.8-3.1-2.7-4.7-3.5,1.9-6.7,4.2-9.4,7.3.8.1,1.5.1,2.2.3.4.1.8.3,1,.6.2.5.2,1.1.3,1.7,0,.1-.2.3-.3.3-.7.3-1.4.5-2.1.7-.2.1-.5-.1-.7-.2-.4-.2-.8-.5-1.2-.7-.3-.1-.7-.1-.9.1-.3.4-.2,1.2.2,1.5.2.1.5.2.8.3,1.1.1,2.2-.1,3.3-.4,5.2-1.7,9.6-4.7,13.3-8.6.9-1,1.7-2,2.2-3.3.4-1.2,0-1.8-1.3-1.9-.5,0-1,0-1.5.1-.7.1-.9.2-.6.9.3.8.8,1.5,1.3,2.3-.7,1.6-2.2,2.8-3.9,3.7Z"/>
</svg>