<?xml version="1.0" encoding="UTF-8"?>
<svg id="Layer_1" data-name="Layer 1" xmlns="http://www.w3.org/2000/svg" version="1.1" viewBox="0 0 85 85">
  <defs>
    <style>
      .cls-1 {
        fill: #000;
        stroke-width: 0px;
      }
    </style>
  </defs>
  <path class="cls-1" d="M9.3,24.7c-1.8,1.8-2.6,3.9-2.6,6.3v33.2c0,2.4.9,4.6,2.6,6.3,1.8,1.8,3.9,2.6,6.3,2.6h2.6V22h-2.6c-2.4,0-4.6.9-6.3,2.7Z"/>
  <path class="cls-1" d="M57.8,15.6c0-1.1-.4-2-1.1-2.7-.7-.7-1.6-1.1-2.7-1.1h-23c-1.1,0-2,.4-2.7,1.1s-1.1,1.6-1.1,2.7v6.4h-5.1v51.1h40.9V22h-5.1v-6.4h0ZM52.6,22h-20.4v-5.1h20.4v5.1Z"/>
  <path class="cls-1" d="M75.6,24.7c-1.8-1.8-3.9-2.6-6.3-2.6h-2.6v51.1h2.6c2.4,0,4.5-.9,6.3-2.6,1.8-1.8,2.6-3.9,2.6-6.3V31.1c0-2.6-.8-4.7-2.6-6.4Z"/>
</svg>