<?xml version="1.0" encoding="UTF-8"?>
<svg id="Layer_1" data-name="Layer 1" xmlns="http://www.w3.org/2000/svg" version="1.1" viewBox="0 0 85 85">
  <defs>
    <style>
      .cls-1 {
        fill: #000;
        stroke-width: 0px;
      }
    </style>
  </defs>
  <path class="cls-1" d="M63.1,29.6v34.3c-.2.6-.4,1.2-.6,1.8-.8,2.2-1.9,4.1-4.2,5.1,0-.5-.1-.9-.1-1.2v-15.9c0-4.1-2.1-6.8-6.6-6.7-6.2.2-12.4,0-18.6,0s-6.1,2.1-6.2,6.1c-.1,4.1,0,8.3,0,12.5v5.1c-.1.1-.3.1-.4.2-.9-1-2-1.8-2.6-2.9-.8-1.4-1.3-2.9-1.9-4.4V29.6c.2-.8.5-1.5.7-2.3,1.6-5.7,5.5-8.7,11.4-8.7h17.9c4.8,0,8.5,2.6,10.2,7.1.2,1.2.6,2.6,1,3.9ZM42.4,22.8h-11.7c-2.9.1-5.3,1.9-5.5,4.5-.3,3-.3,6-.3,9s.7.9,1,1.3c.3-.4.8-.9.8-1.3.1-2.3,0-4.6,0-7s1.7-4.9,4.8-4.9c7.2-.1,14.5-.1,21.7,0,3.2,0,4.7,1.8,4.7,4.9v13.9c0,.5.6,1.1.9,1.6.3-.5.9-1,.9-1.6.1-4.7.1-9.5,0-14.2,0-4-2.3-6.3-6.4-6.3s-7.2.1-10.9.1ZM42.5,39.3h4c1.9,0,2.6-.7,2.6-2.7v-1.8c-.1-1.2-.8-2-2.1-2h-9.1c-1.4,0-2,.8-2.1,2.2v1.5c0,2.2.7,2.8,2.9,2.8h3.8ZM24.2,43.3c-.2,1.4.7,1.7,1.8,1.7s1.9-.2,1.7-1.5c-.2-1.2-.5-2.4-.9-3.6-.1-.3-.6-.8-.9-.7-.3,0-.7.5-.8.8-.4,1.1-.6,2.2-.9,3.3Z"/>
  <path class="cls-1" d="M55,73.3h-24.6c-1.6-.6-2.1-1.8-2-3.5.1-5.2.1-10.5.1-15.7s1.6-5.4,5.4-5.4h17.3c4.1,0,5.4,1.2,5.4,5.4v16.2c0,1.3-.5,2.3-1.6,3ZM42.3,58.6h9.2c.4,0,.7-.4,1.1-.6-.4-.2-.7-.7-1.1-.7-6.1-.1-12.3-.1-18.4-.1s-.8.4-1.2.7c.4.2.9.6,1.3.6,3.1.1,6.1.1,9.1.1ZM52.1,66c1.4,0,1.9-.6,1.6-2-.2-1-.4-2-.7-2.9-.1-.4-.6-.8-1-.9-.2-.1-.7.5-.8.8-.3,1.1-.5,2.2-.8,3.3-.2,1.3.6,1.7,1.7,1.7Z"/>
  <path class="cls-1" d="M43.6,11.8c1.5,1.1,3.1,2.2,4.5,3.5.5.4.6,1.2,1,2.1-1.1,0-1.9.1-2.6,0-.4-.1-.8-.5-.9-.8-.8-2.5-1.6-3.5-3.2-3.4-1.6.1-2.6,1.4-3,3.9q0,.1-.1.3h-3.2c.6-3,2.9-4.3,5.3-5.5.7-.1,1.5-.1,2.2-.1Z"/>
</svg>