<?xml version="1.0" encoding="UTF-8"?>
<svg id="Layer_1" data-name="Layer 1" xmlns="http://www.w3.org/2000/svg" version="1.1" viewBox="0 0 85 85">
  <defs>
    <style>
      .cls-1 {
        fill: #000;
        stroke-width: 0px;
      }
    </style>
  </defs>
  <path class="cls-1" d="M23.3,72.4c-.8-.3-1.4-.8-1.6-1.7,0-.2-.1-.5-.1-.8v-35.3c0-.5.2-.6.6-.6h40.4c.5,0,.6.1.6.6v35.3c0,1.2-.5,2-1.6,2.5H23.3ZM61.2,61.1h0c0-1.6,0-3.3-.1-4.9-.1-1.3-1-2-2.2-2h-2.8c-1.5,0-2.4.8-2.4,2.3v9.3c0,1.4.9,2.3,2.4,2.3h2.6c1.6.1,2.5-1,2.5-2.5v-4.5ZM47.8,42.4h1.7c.6,0,1.2-.3,1.6-.8.7-.8.5-1.8.4-2.8s-.8-1.6-1.8-1.7c-1.2-.1-2.5-.1-3.8,0-1.1.1-1.8.9-1.8,2v1.1c0,1.2.9,2.1,2.1,2.1.5,0,1,0,1.6,0ZM38.3,59.5h1.6c1.2,0,2-.9,2.1-2v-1.2c0-1.2-.9-2.1-2.1-2.1h-3.2c-1.1,0-1.9.8-2.1,1.9-.1.5-.1,1,0,1.5.1,1.2,1,1.9,2.1,2,.5,0,1,0,1.6,0ZM47.8,54.3h-1.6c-1.2,0-2.1.9-2.1,2.1v1.1c0,1.2.9,2.1,2.1,2.1h3.1c1.2,0,2-.8,2.1-2v-1.4c-.1-1.2-1-2-2.1-2-.4,0-.9,0-1.5,0ZM47.8,68h1.7c1,0,1.8-.8,1.9-1.8.1-.5.1-1,0-1.5-.1-1.2-.9-2-2.1-2.1h-3.1c-1.3,0-2.1.9-2.2,2.2v.9c0,1.3.9,2.2,2.2,2.2.6,0,1.1,0,1.6,0ZM28.7,54.3h-1.6c-1.2,0-2.1.9-2.1,2.1v1.1c.1,1.2.9,2.1,2.1,2.1h3.1c.9,0,1.7-.4,2-1.4.2-.6.2-1.3.2-1.9-.1-1.3-1-2.1-2.3-2.1-.5,0-.9,0-1.4,0ZM38.3,42.4h1.7c1.1,0,2-.9,2-2v-1.3c-.1-1.1-.8-1.9-1.8-2-1.3-.1-2.5-.1-3.8,0-.9.1-1.6.8-1.7,1.7-.1.5-.1,1.1,0,1.7.1,1.1,1,1.8,2,1.9.5,0,1,0,1.6,0ZM28.6,42.4h1.7c1.1,0,2-.8,2.1-1.9.1-.5.1-1,0-1.5-.1-1.1-.8-1.8-1.9-1.9-1.2-.1-2.5-.1-3.8,0-1,.1-1.7.9-1.8,1.9v1.3c.1,1.2.9,2,2.1,2.1h1.6ZM28.7,68h1.8c1-.1,1.8-.8,1.9-1.8.1-.5.1-1,0-1.5-.1-1.2-.9-2-2-2-1.1-.1-2.3-.1-3.4,0-1.2.1-1.9.9-2,2.1v1.1c.1,1.2.9,2.1,2.1,2.1.5,0,1,0,1.6,0ZM38.3,68h1.6c1.2,0,2-.9,2.1-2.1v-1.1c0-1.1-.8-2-2-2.1s-2.3-.1-3.5,0c-1.1,0-1.9.8-2,1.9v1.6c.1,1,.9,1.8,2,1.8.6,0,1.2,0,1.8,0ZM47.8,45.6h-1.9c-.6,0-1.1.4-1.5.8-.5.7-.4,1.4-.4,2.2,0,1.3.8,2.2,2.1,2.2h3.2c1.2,0,2-.8,2.1-2v-1.4c-.1-1.1-.9-1.8-1.9-1.9-.6,0-1.1,0-1.7,0ZM28.7,45.6h-1.8c-1.1.1-1.9.9-1.9,2v1.3c.1,1.1.8,1.9,1.9,2,1.2.1,2.5.1,3.7,0,1-.1,1.7-.8,1.9-1.9v-1.1c0-1.3-.9-2.2-2.2-2.3h-1.6ZM38.3,45.6h-1.7c-1.1.1-1.9.8-2,2v1.2c.1,1.3.9,2.1,2.1,2.1h3.1c1.4,0,2.2-.9,2.2-2.2v-1c-.1-1.1-.8-2-2-2-.6-.1-1.1-.1-1.7-.1ZM57.4,45.6h-1.8c-.8,0-1.4.5-1.7,1.2-.3.7-.3,1.5-.2,2.2.1,1,.8,1.8,1.8,1.8,1.2.1,2.5.1,3.7,0,1-.1,1.7-.8,1.8-1.8.1-.5.1-1,0-1.6-.1-1-.9-1.8-2-1.9-.5,0-1,0-1.6,0ZM57.4,42.4h1.7c1,0,1.9-.8,2-1.8.1-.5.1-1.1,0-1.7-.1-.9-.8-1.7-1.8-1.8-1.3-.1-2.6-.1-3.9,0-.9,0-1.6.8-1.8,1.7-.1.5-.1,1,0,1.6.1,1.2,1,1.9,2.1,2,.6,0,1.1,0,1.7,0Z"/>
  <path class="cls-1" d="M61.7,12.6c.8.3,1.4.8,1.6,1.7,0,.2.1.5.1.7v17.3c0,.5-.2.6-.6.6H22.3c-.5,0-.6-.2-.6-.6V15.5c0-1.3.4-2.3,1.6-2.8,12.8,0,25.6,0,38.4,0ZM42.6,16.9h-16c-.5,0-.6.1-.6.6v9.4q0,.6.6.6h31.9c.5,0,.6-.1.6-.6v-9.4q0-.7-.6-.7c-5.4.1-10.6.1-15.9.1Z"/>
  <path class="cls-1" d="M57.4,60.6h-1.2c-.4,0-.4-.3-.4-.5,0-.3-.1-.6.4-.5h2.5c.4,0,.4.3.4.5s.1.6-.3.6c-.6-.2-1-.1-1.4-.1Z"/>
  <path class="cls-1" d="M57.3,62.8h-1.2c-.5,0-.3-.3-.3-.6s-.1-.5.4-.5h2.5c.4,0,.4.3.4.5,0,.3.1.6-.4.5-.5.1-.9.1-1.4.1Z"/>
  <path class="cls-1" d="M59.1,48.9h-2.9c-.4,0-.3-.3-.3-.5s-.1-.6.3-.6h2.6c.1,0,.3.2.3.3v.8Z"/>
  <path class="cls-1" d="M59.1,39.4c0,.3,0,.7-.1.9-.2.2-.6.1-.9.1,0,.3,0,.7-.2,1-.1.2-.6.1-.9.1v-1c-.3,0-.8,0-1-.2s-.1-.6-.1-.9h.1c.3-.1.6-.1.8-.2.1-.1,0-.5.1-.7.1-.1.3-.2.5-.2s.5-.2.6.2c0,.3,0,.6.2.8.1.1.5.1.8.1,0,0,0,0,.1,0Z"/>
</svg>