<?xml version="1.0" encoding="UTF-8"?>
<svg id="Layer_1" data-name="Layer 1" xmlns="http://www.w3.org/2000/svg" version="1.1" viewBox="0 0 85 85">
  <defs>
    <style>
      .cls-1 {
        fill: #000;
        stroke-width: 0px;
      }
    </style>
  </defs>
  <path class="cls-1" d="M74.6,54c-.6,2.8-1.1,5.5-1.7,8.3-.2.9-.6,1.8-1,2.7-.7-3.8-2.4-6.8-6-8.4s-7-1.1-10.4,1.1c.5-3.7-.4-6.8-3-9.3-2.7-2.5-5.8-3.3-9.3-2.3-.6.2-1.3.8-1.7,1.4-5.1,8.1-10,16.2-15.1,24.2-2.2,3.4-6.7,4.3-10.5,2.1-3.7-2.2-5.2-6.6-3.4-10.2.1-.2.3-.4.5-.7.7.4,1.3.8,2,1.2-.3.7-.6,1.3-.7,1.9-.6,2.5.9,5.1,3.4,6.2s5.1.4,6.6-1.9c5-8,10-16.1,15-24.1.4-.6.4-1.6.2-2.3-1.4-6.7-8.6-9.9-14.6-6.7-.4.2-.7.4-1.1.7.9-8.1-6-13.7-13.4-11.4,7.7-9.7,27-17.5,45.7-7.2,1.5-1.9,3.1-3.9,4.6-5.8,1,.2,1.1.7.6,1.5-1,1.8-2,3.7-2.9,5.4,2.5,2.4,5,4.5,7.2,6.9,5.2,5.9,8.1,12.8,8.8,20.6,0,.3.2.5.2.8,0,1.7,0,3.5,0,5.3Z"/>
</svg>