<?xml version="1.0" encoding="UTF-8"?>
<svg id="Layer_1" data-name="Layer 1" xmlns="http://www.w3.org/2000/svg" version="1.1" viewBox="0 0 85 85">
  <defs>
    <style>
      .cls-1 {
        fill: #000;
        stroke-width: 0px;
      }
    </style>
  </defs>
  <path class="cls-1" d="M63,11.5c1.2.3,2.4.7,3.2,1.7,2.3,2.5,3.1,5.4,2.3,8.7-.4,1.8-1.3,3.3-2.7,4.6,0,0-.3.2-.5.2H28.7c0,0,.2-.2.3-.3,2.5-2.6,3.4-5.7,2.4-9.1-.6-2.2-2.1-4-4-5.2-.2,0-.4-.3-.6-.5,11.9-.1,24.1-.1,36.2-.1Z"/>
  <path class="cls-1" d="M47.4,73.5c-.5-.6-.9-1.3-1.4-1.9-.5-.6-1.4-.8-2.1-.3-.6.4-1.1.8-1.7,1.1,0,0-.4,0-.5,0s0-.3,0-.5c.6-3.5,1.1-7,1.7-10.6,1.8,1.6,3.8,2.4,6.2,2.5,0,.8-.3,1.6-.4,2.3-.4,2.2-.7,4.3-1.1,6.5,0,.2-.2.5-.3.7,0,.1-.2.1-.3.1Z"/>
  <path class="cls-1" d="M51.9,73.5c-.2-.6-.4-1.2-.5-1.7-.4-2.4-.8-4.9-1.2-7.3,0,0,0-.3,0-.5,2.3,0,4.3-1,6.1-2.6.3,1.6.5,3.1.8,4.6.3,1.9.6,3.8.9,5.6,0,.3,0,.6,0,.8-.3,0-.6-.2-.8-.3-.6-.4-1.1-.8-1.7-1.2s-1.1-.4-1.6.2c-.6.7-1.1,1.5-1.7,2.3,0,.1,0,.1-.1.1Z"/>
  <path class="cls-1" d="M63.6,28v35.7c0,1.4-.6,2-2,2h-2.5c-.3,0-.4,0-.5-.4-.3-1.8-.6-3.6-.8-5.4,0-.3.2-.6.3-.8,1.5-2.8,1.8-5.6.6-8.5-1.3-3.1-3.7-5.1-6.9-5.7-3.9-.8-7.2.4-9.6,3.6-2.4,3.2-2.7,6.7-.9,10.2.5,1,.5,1.8.3,2.8-.2,1.2-.4,2.5-.6,3.8,0,.4-.2.5-.6.5h-22.9c-1.1,0-1.8-.7-1.8-1.8V19.8c0-3.2,1.5-5.8,4.4-7.3,1.9-1,3.8-1,5.6.2,1.6,1,3,2.3,3.8,4.1,1,2.2.9,4.3,0,6.5-.7,1.6-1.9,2.6-3.2,3.7-.4.3-.7.7-1.2,1.1,12.9-.2,25.7-.2,38.5-.2ZM40.3,42.5h-17.6c-.6,0-1,.3-1,.8s.4.8,1,.8h35.2c.6,0,1-.3,1-.8s-.4-.8-1-.8h-17.6ZM40.3,34.5h18c.4,0,.7-.3.7-.8s-.3-.7-.7-.8H22.5c-.4,0-.7.3-.7.8s.3.7.7.8h17.8ZM35,39.3h12.1c.9,0,1.2-.2,1.2-.8s-.4-.8-1.2-.8h-24.3c-.8,0-1.2.3-1.2.8s.4.8,1.2.8h12.2Z"/>
  <path class="cls-1" d="M41.7,54.3c0-4.5,3.6-8.1,8.1-8.1s8.1,3.6,8.1,8.1-3.6,8.1-8.1,8.1c-4.6,0-8.1-3.7-8.1-8.1Z"/>
</svg>