<?xml version="1.0" encoding="UTF-8"?>
<svg id="Layer_1" data-name="Layer 1" xmlns="http://www.w3.org/2000/svg" version="1.1" viewBox="0 0 85 85">
  <defs>
    <style>
      .cls-1 {
        fill: #000;
        stroke-width: 0px;
      }
    </style>
  </defs>
  <path class="cls-1" d="M42.5,12.3c-16.7,0-30.2,13.5-30.2,30.2s13.5,30.2,30.2,30.2,30.2-13.5,30.2-30.2-13.5-30.2-30.2-30.2ZM42.5,67.8c-13.9,0-25.2-11.3-25.2-25.2s11.3-25.2,25.2-25.2,25.2,11.3,25.2,25.2c.1,13.9-11.2,25.2-25.2,25.2Z"/>
  <path class="cls-1" d="M59,41.8h-15.6v-10.5c0-.9-.8-1.7-1.7-1.7s-1.7.8-1.7,1.7v12.5c0,.9.8,1.7,1.7,1.7h17.4c1,0,1.9-.8,1.9-1.9,0-.9-1-1.8-2-1.8Z"/>
</svg>