<?xml version="1.0" encoding="UTF-8"?>
<svg id="Layer_1" data-name="Layer 1" xmlns="http://www.w3.org/2000/svg" version="1.1" viewBox="0 0 85 85">
  <defs>
    <style>
      .cls-1 {
        fill: #000;
        stroke-width: 0px;
      }
    </style>
  </defs>
  <path class="cls-1" d="M54.8,12.2h1.8c.1,0,.3,0,.4,0,1.6.3,3.1,1,4.3,2.2,3.1,3,6.1,6.1,9.1,9.2.6.6,1.1,1.4,1.5,2.1.4.8.6,1.7.8,2.6v1.8c0,0-.1.2-.1.3-.3,1.6-.9,3-2,4.2-.8.9-1.7,1.7-2.6,2.6l-33,33c-1.1,1.1-2.3,1.9-3.8,2.2-.3,0-.6.2-1,.3h-1.8c-.1,0-.2,0-.3,0-1.7-.3-3.2-1.1-4.5-2.3l-9-9c-1-1-1.7-2.2-2.1-3.6-.1-.4-.2-.7-.3-1.1v-1.8c0,0,.1-.2.1-.3.3-1.6.9-3,2-4.1,1-1,1.9-2,2.9-3,10.9-10.9,21.8-21.8,32.7-32.7,1.1-1.1,2.3-1.8,3.8-2.2.4-.2.8-.3,1.1-.4ZM45.2,41.7c0-1-.8-1.8-1.7-1.8s-1.8.8-1.8,1.8.8,1.8,1.8,1.8,1.6-.8,1.7-1.8ZM34.6,39.9c-1,0-1.8.8-1.8,1.8s.8,1.8,1.8,1.8,1.8-.8,1.8-1.8c0-1-.8-1.8-1.8-1.8ZM45.1,50.5c0-1-.8-1.8-1.8-1.8s-1.8.8-1.8,1.8.8,1.8,1.8,1.8,1.8-.8,1.8-1.8ZM38.9,47.8c1,0,1.8-.8,1.8-1.8s-.9-1.8-1.8-1.8-1.8.8-1.8,1.8c0,1.1.8,1.8,1.8,1.8ZM43.5,34.5c1,0,1.8-.8,1.8-1.8s-.8-1.8-1.8-1.8-1.8.8-1.8,1.8c0,1,.9,1.8,1.8,1.8ZM47.7,47.8c1,0,1.8-.8,1.8-1.8s-.8-1.8-1.8-1.8-1.8.8-1.8,1.8.8,1.8,1.8,1.8ZM52.3,39.7c-1,0-1.8.8-1.8,1.8s.8,1.8,1.8,1.8,1.8-.9,1.8-1.8-.8-1.8-1.8-1.8ZM37.2,37.3c0,1,.8,1.8,1.8,1.8s1.8-.8,1.8-1.8-.8-1.8-1.8-1.8-1.8.8-1.8,1.8ZM46.2,37.1c0,1,.8,1.8,1.8,1.8s1.8-.8,1.8-1.8-.8-1.8-1.8-1.8-1.8.8-1.8,1.8Z"/>
  <path class="cls-1" d="M72.8,54.8v1.8c0,0-.1.2-.1.3-.3,1.8-1.1,3.2-2.3,4.5l-9,9c-.6.5-1.2,1.1-1.9,1.4-.9.4-1.9.7-2.8,1h-1.8c-.1,0-.2,0-.3,0-1.6-.3-3-.9-4.2-2l-3-3c-.6-.6-1.2-1.2-1.7-1.7,6.8-6.8,13.6-13.6,20.3-20.4,1.4,1.4,2.8,2.8,4.2,4.2s1.5,1.6,1.9,2.7c.3.8.5,1.5.7,2.3Z"/>
  <path class="cls-1" d="M28.4,12.2h1.8c.1,0,.2,0,.3,0,1.6.3,3,.9,4.1,2,1.2,1.2,2.4,2.4,3.6,3.6.4.4.8.7,1.2,1.1-6.8,6.8-13.6,13.6-20.4,20.4-.1,0-.2,0-.2-.2-1.5-1.5-2.9-2.9-4.4-4.4s-1.7-2.2-2-3.6c-.1-.3-.2-.6-.3-1v-1.8c0,0,.1-.2.1-.4.3-1.7,1.1-3.2,2.3-4.4l9-9c1-1,2.2-1.8,3.7-2.1.5,0,.8-.2,1.2-.3Z"/>
</svg>