<?xml version="1.0" encoding="UTF-8"?>
<svg id="Layer_1" data-name="Layer 1" xmlns="http://www.w3.org/2000/svg" version="1.1" viewBox="0 0 85 85">
  <defs>
    <style>
      .cls-1 {
        fill: #000;
        stroke-width: 0px;
      }
    </style>
  </defs>
  <g>
    <path class="cls-1" d="M43.9,15.2h0c0,0,.3.3.4.4,4.6,4.6,9,9,13.6,13.6.2.2.3.3.5.5-.2.2-.4.3-.5.4-3.9,3.9-7.9,7.9-11.9,11.9-.2.2-.4.4-.4.7,0,2.3-.9,4.4-2.6,6-6.2,6.2-12.5,12.5-18.7,18.7-.8.8-1.8,1.5-2.9,2-.6.3-1.3.4-2.1.6h-2.1c0,0,0,0-.2,0-1.7-.3-3.1-.9-4.4-2.1l-6.7-6.7c-1.2-1.2-1.9-2.7-2.1-4.4,0-.4,0-.8-.2-1.2v-.4c0,0,0-.3,0-.4,0-2.1,1-3.8,2.4-5.3,6.3-6.3,12.6-12.6,18.9-18.9,1.3-1.3,2.9-2.1,4.8-2.3.6,0,1.1-.4,1.5-.7,3.9-4,7.9-7.9,12-12,0,0,0-.2.3-.3ZM45,39.4c3.3-3.3,6.6-6.6,9.8-9.8-3.6-3.6-7.2-7.2-10.8-10.8-3.3,3.3-6.6,6.6-9.9,9.9,1.7.5,2.9,1.9,4.2,3.1,1.4,1.5,2.9,2.9,4.5,4.4.8,1.1,1.7,2.1,2.2,3.2Z"/>
    <path class="cls-1" d="M52,29.8c-.8.8-1.7,1.7-2.5,2.5l-3.4-3.4c.8-.8,1.6-1.6,2.5-2.5,1.1,1.2,2.2,2.2,3.4,3.4Z"/>
    <path class="cls-1" d="M44.3,27.2l-3.3-3.3c.8-.8,1.7-1.7,2.5-2.5l3.3,3.3c-.8.7-1.7,1.6-2.5,2.5Z"/>
  </g>
  <path class="cls-1" d="M81.1,29.3v4.6c0,.4,0,.4-.4.4s-1,0-1.2,0c-.2.3,0,.8,0,1.2v2.4c0,1.4-.5,2.6-1.5,3.6-1.7,1.7-3.5,3.3-5.3,5-.6.5-.9,1.2-.9,2.1v8.5c0,.5,0,.7.6.9,1.7.5,2.8,2.1,2.8,3.8s-1,3.3-2.5,4c-2.2,1-4.7,0-5.6-2.4-.9-2.1.4-4.7,2.6-5.4.4-.2.6-.4.5-.8v-2.1c0-.9-.4-1.5-1-2.1-1.8-1.6-3.5-3.3-5.2-4.9-1-.9-1.5-2.1-1.4-3.5v-3.4c0-.4,0-.5-.4-.7-1.1-.5-1.5-1.8-1.2-2.9.4-1.2,1.4-1.9,2.6-1.8s2.1,1,2.2,2.1c.2,1-.4,2.1-1.2,2.5-.4.2-.4.4-.4.7v3.7c0,.7.3,1.3.8,1.8,1.6,1.5,3.3,3.1,4.9,4.6,0,0,.2,0,.4.3,0-.2,0-.4,0-.5v-25c0-.4,0-.6-.5-.6h-1.5c1-1.7,1.9-3.3,2.9-4.9,1,1.7,1.9,3.2,2.9,4.9h-1.5c-.4,0-.5,0-.5.5v19.2c.2-.2.4-.2.4-.4,1.6-1.5,3.2-3,4.8-4.6.5-.4.8-1.1.8-1.8v-3.7c0-.3,0-.4-.4-.4h-.4c-1,0-.9,0-.9-.9v-3.7c0-.4,0-.4.4-.4,1.3,0,2.9,0,4.5,0Z"/>
</svg>