<?xml version="1.0" encoding="UTF-8"?>
<svg id="Layer_1" data-name="Layer 1" xmlns="http://www.w3.org/2000/svg" version="1.1" viewBox="0 0 85 85">
  <defs>
    <style>
      .cls-1 {
        fill: #000;
        stroke-width: 0px;
      }
    </style>
  </defs>
  <path class="cls-1" d="M65.1,60.3h4.9c-.4.5-.9.7-1.5.9-.5.2-1.1.3-1.6.4,0,.6-.1.8-.8.8h-13.2c-.7,0-.8,0-.8-.8-1-.3-2.2-.4-3-1.2h0c1.8,0,3.7,0,5.5,0h0c-.1,0-.1-.2-.2-.2-4.1-2.1-6.5-5.4-7.5-9.8-.5-2-.4-4.1-.1-6.2.1-.4.2-.5.6-.5h24.8c.4,0,.5,0,.6.4,0,.3.1.6.1.9s.1.3.4.3h2.1c1.4,0,2.5,1.1,2.5,2.5v4.5c0,1.4-1.1,2.5-2.5,2.5h-4.1c-.1,0-.4,0-.4.2-1.4,2.3-3.3,4-5.7,5.2,0,0,0,0,0,.2-.1,0,0,0,0,0ZM71.9,52.7s.1,0,0,0c1.2,0,2.4,0,3.5,0s.4-.2.4-.4h0v-4.5c0-.3-.1-.6-.4-.6h-2.4c-.1,1.8-.4,3.6-1.1,5.4Z"/>
  <path class="cls-1" d="M37.8,38.5c0-.3,0-.7-.1-1-.7-3.5-3.3-5.7-6.9-5.7h-.7v-4.2c-.4-1.1-1-2-1.9-2.6-.3-.2-.4-.5-.4-.9v-6c0-2.8-1.9-5.3-4.6-6.2-.3,0-.7-.2-1-.3h-6.9c-.1,0-.2,0-.3,0-3.2.6-5.5,3.2-5.5,6.5v6c0,.4-.1.6-.4.9-.7.6-1.2,1.3-1.4,2.2h-.1l-.4,4.5v33.2l.2,4.2c.2,1,.7,1.8,1.3,2.6.8.9,1.8,1.2,2.9,1.6h14.2c.5-.2,1-.3,1.5-.6,1.5-.7,2.4-1.9,2.7-3.6h-.2l.2-4.2h.8c.5,0,.9,0,1.4,0,3-.5,5.4-3.3,5.5-6.3.2-6.8.1-13.5.1-20.1ZM27.9,69.1H9.2v-4.2h18.7v4.2ZM9.3,31.8v-4.2h18.7v4.2c-6.2,0-12.4,0-18.7,0ZM33.4,57.6c0,.5,0,.9-.2,1.4-.4,1.3-1.4,1.9-3.1,1.7v-24.7c1.8-.3,3,.5,3.3,2.3v1c0,6.1,0,12.2,0,18.3Z"/>
</svg>