<?xml version="1.0" encoding="UTF-8"?>
<svg id="Layer_1" data-name="Layer 1" xmlns="http://www.w3.org/2000/svg" version="1.1" viewBox="0 0 85 85">
  <defs>
    <style>
      .cls-1 {
        fill: #000;
        stroke-width: 0px;
      }
    </style>
  </defs>
  <path class="cls-1" d="M48.2,43.9c-.8.8-1.5,1.6-2.2,2.3-4,4.1-8.1,8.1-12.2,12.2s-.4.5-.4.9v12.7c0,.4,0,.7-.5.8-.5,0-.7-.2-.8-.6-.2-.6-.5-1.3-.7-1.9-1.2-3-2.3-5.9-3.5-8.9-.3-.7-.9-.9-1.4-.3-.9.8-2,.8-2.7,0s-.7-1.8,0-2.7c.5-.6.4-1.1-.3-1.4-3.6-1.4-7.1-2.8-10.7-4.2-.2,0-.4,0-.5-.3-.2-.2-.3-.4-.3-.6s.3-.4.5-.5c0,0,.4,0,.5,0h12.8c.3,0,.6,0,.7-.3,4.7-4.7,9.4-9.3,14-14q0,0,.2-.3c-1-.4-2-.8-2.9-1.2-6.9-2.7-13.7-5.4-20.6-8.1-.8-.3-1.3-.8-1.3-1.7s.3-1.4,1.1-1.6c.4,0,.8-.2,1.2-.2h34.8c.5,0,.8,0,1.1-.5,2.4-2.4,4.7-4.8,7.2-7.2,2.3-2.2,5.1-3.6,8.2-4.3.4,0,.8,0,1.1,0,1.4,0,2.1.8,2.2,2.2,0,1.4-.5,2.7-1,3.9-1.2,3-3.2,5.3-5.5,7.5-1.8,1.7-3.5,3.5-5.2,5.2s-.3.5-.3.9v35.1c0,.9-.2,1.6-1,1.9-1,.5-2,0-2.5-1.2-1.5-3.8-3-7.6-4.5-11.4-1.5-3.9-3-7.7-4.5-11.6,0-.1,0-.3-.2-.6Z"/>
</svg>