<?xml version="1.0" encoding="UTF-8"?>
<svg id="Layer_2" data-name="Layer 2" xmlns="http://www.w3.org/2000/svg" viewBox="0 0 61.89 61.99">
  <defs>
    <style>
      .cls-1 {
        fill: #00c1de;
      }
    </style>
  </defs>
  <g id="Layer_1-2" data-name="Layer 1">
    <g>
      <g>
        <path class="cls-1" d="M56.32,48.72c1.34,0,2.45,1.11,2.45,2.43v1.58h3.12c0,.98-.8,1.78-1.78,1.78h-3.12v-3.34c0-.37-.3-.67-.67-.67s-.67.3-.67.67v1.56c0,.98-.8,1.78-1.78,1.78v-3.34c0-1.35,1.1-2.45,2.45-2.45Z"/>
        <path class="cls-1" d="M61.36,41.29c.7.7.7,1.83,0,2.52l-2.37,2.39h2.91c0,.98-.8,1.78-1.78,1.78h-3.12v-3.34c0-.37-.3-.67-.67-.67s-.67.3-.67.67v1.56c0,.98-.8,1.78-1.78,1.78v-3.34c0-1.35,1.1-2.45,2.45-2.45,1.11,0,2.07.78,2.36,1.79l2.68-2.69Z"/>
        <path class="cls-1" d="M57.88,33.34c2.22,0,4.01,1.79,4.01,4.01s-1.79,4.01-4.01,4.01-4.01-1.79-4.01-4.01,1.79-4.01,4.01-4.01ZM57.88,35.12c-1.23,0-2.23,1-2.23,2.23s1,2.23,2.23,2.23,2.23-.99,2.23-2.23-.99-2.23-2.23-2.23Z"/>
        <path class="cls-1" d="M53.87,24.53h6.24c.98,0,1.78.8,1.78,1.78h-4.24l2.78,2.23-2.78,2.23h4.24c0,.98-.8,1.78-1.78,1.78h-6.24c0-.55.25-1.04.64-1.37l3.2-2.64-3.18-2.63c-.4-.32-.66-.82-.66-1.38Z"/>
        <path class="cls-1" d="M57.88,15.71c2.22,0,4.01,1.79,4.01,4.01s-1.79,4.01-4.01,4.01-4.01-1.79-4.01-4.01,1.79-4.01,4.01-4.01ZM57.88,17.5c-1.23,0-2.23,1-2.23,2.23s1,2.23,2.23,2.23,2.23-.99,2.23-2.23-.99-2.23-2.23-2.23Z"/>
      </g>
      <path class="cls-1" d="M51.66,54.07c-3.87,3.44-8.52,5.94-13.77,7.15-2.24.52-4.48.77-6.89.77-10.76,0-20.23-5.42-25.74-13.77C1.89,43.3,0,37.36,0,30.99s1.89-12.31,5.25-17.22C9.56,7.32,16.27,2.58,24.11.77c1.98-.43,3.96-.69,6.11-.77h21.44c0,7.58-6.37,13.77-13.77,13.77h-7.49c-9.21.34-16.62,7.92-16.62,17.22s7.75,17.22,17.22,17.22c2.5,0,4.82-.52,6.89-1.46v-8.87h-13.77c0-7.58,6.2-13.77,13.77-13.77h13.77v29.96Z"/>
      <path class="cls-1" d="M45.42,15.78h6.03v6.91h-10.98s2.46-6.91,4.96-6.91Z"/>
    </g>
  </g>
</svg>